<svg xmlns="http://www.w3.org/2000/svg" xmlns:xlink="http://www.w3.org/1999/xlink" width="200" zoomAndPan="magnify" viewBox="0 0 150 112.499997" height="150" preserveAspectRatio="xMidYMid meet" version="1.0"><defs><g/></defs><g fill="#000000" fill-opacity="1"><g transform="translate(6.168568, 84.312877)"><g><path d="M 49.578125 -43.15625 L 49.578125 0 L 37.625 0 L 37.625 -4.96875 C 34.519531 -1.226562 30.023438 0.640625 24.140625 0.640625 C 20.078125 0.640625 16.398438 -0.265625 13.109375 -2.078125 C 9.828125 -3.898438 7.25 -6.492188 5.375 -9.859375 C 3.5 -13.234375 2.5625 -17.140625 2.5625 -21.578125 C 2.5625 -26.015625 3.5 -29.914062 5.375 -33.28125 C 7.25 -36.65625 9.828125 -39.25 13.109375 -41.0625 C 16.398438 -42.882812 20.078125 -43.796875 24.140625 -43.796875 C 29.648438 -43.796875 33.957031 -42.054688 37.0625 -38.578125 L 37.0625 -43.15625 Z M 26.3125 -9.625 C 29.46875 -9.625 32.085938 -10.707031 34.171875 -12.875 C 36.253906 -15.039062 37.296875 -17.941406 37.296875 -21.578125 C 37.296875 -25.210938 36.253906 -28.113281 34.171875 -30.28125 C 32.085938 -32.445312 29.46875 -33.53125 26.3125 -33.53125 C 23.101562 -33.53125 20.453125 -32.445312 18.359375 -30.28125 C 16.273438 -28.113281 15.234375 -25.210938 15.234375 -21.578125 C 15.234375 -17.941406 16.273438 -15.039062 18.359375 -12.875 C 20.453125 -10.707031 23.101562 -9.625 26.3125 -9.625 Z M 26.3125 -9.625 "/></g></g></g><g fill="#000000" fill-opacity="1"><g transform="translate(57.590573, 84.312877)"><g><path d="M 17.734375 -37.46875 C 19.222656 -39.550781 21.238281 -41.125 23.78125 -42.1875 C 26.320312 -43.257812 29.25 -43.796875 32.5625 -43.796875 L 32.5625 -32.25 C 31.175781 -32.351562 30.242188 -32.40625 29.765625 -32.40625 C 26.179688 -32.40625 23.375 -31.398438 21.34375 -29.390625 C 19.3125 -27.390625 18.296875 -24.382812 18.296875 -20.375 L 18.296875 0 L 5.78125 0 L 5.78125 -43.15625 L 17.734375 -43.15625 Z M 17.734375 -37.46875 "/></g></g></g><g fill="#000000" fill-opacity="1"><g transform="translate(88.235157, 84.312877)"><g><path d="M 24.3125 -16.921875 L 18.296875 -10.984375 L 18.296875 0 L 5.78125 0 L 5.78125 -59.515625 L 18.296875 -59.515625 L 18.296875 -25.828125 L 36.578125 -43.15625 L 51.5 -43.15625 L 33.53125 -24.875 L 53.109375 0 L 37.9375 0 Z M 24.3125 -16.921875 "/></g></g></g></svg>